{"title":"The Adventures of Ichabod and Mr. Toad 1949 1008p Brrip.SSloco","uid":11981891,"size":607811317,"categoryP":"video","categoryS":"hd___movies","magnet":"?xt=urn:btih:0141a5223ddc6ab47b49cfdc536834316fa984d3&amp;dn=The+Adventures+of+Ichabod+and+Mr.+Toad+1949+1008p+Brrip.SSloco&amp;tr=udp%3A%2F%2Ftracker.openbittorrent.com%3A80&amp;tr=udp%3A%2F%2Fopen.demonii.com%3A1337&amp;tr=udp%3A%2F%2Ftracker.coppersurfer.tk%3A6969&amp;tr=udp%3A%2F%2Fexodus.desync.com%3A6969","seeders":0,"leechers":7,"uploader":"myhoes14","files":1,"time":1433243990,"description":"Source:Bluray jhapson\n\n\n\nMedia Info\n\nFormat                      : MPEG-4\nFormat profile              : Base Media\nCodec ID                    : isom\nFile size                   : 580 MiB\nDuration                    : 1h 8mn\nOverall bit rate mode       : Variable\nOverall bit rate            : 1 190 Kbps\nEncoded date                : UTC 2015-05-30 08:51:17\nTagged date                 : UTC 2015-05-30 08:51:17\n\nVideo\nID                          : 1\nFormat                      : AVC\nFormat/Info                 : Advanced Video Codec\nFormat profile              : &lt;a class=&quot;__cf_email__&quot; href=&quot;/cdn-cgi/l/email-protection&quot; data-cfemail=&quot;145c7d737c5458203a25&quot;&gt;[email&amp;#160;protected]&lt;/a&gt;&lt;script data-cfhash='f9e31' type=&quot;text/javascript&quot;&gt;\n/* &lt;![CDATA[ */!function(){try{var t=&quot;currentScript&quot;in document?document.currentScript:function(){for(var t=document.getElementsByTagName(&quot;script&quot;),e=t.length;e--;)if(t[e].getAttribute(&quot;data-cfhash&quot;))return t[e]}();if(t&amp;&amp;t.previousSibling){var e,r,n,i,c=t.previousSibling,a=c.getAttribute(&quot;data-cfemail&quot;);if(a){for(e=&quot;&quot;,r=parseInt(a.substr(0,2),16),n=2;a.length-n;n+=2)i=parseInt(a.substr(n,2),16)^r,e+=String.fromCharCode(i);e=document.createTextNode(e),c.parentNode.replaceChild(e,c)}t.parentNode.removeChild(t);}}catch(u){}}()/* ]]&gt; */&lt;/script&gt;\nFormat settings, CABAC      : Yes\nFormat settings, ReFrames   : 6 frames\nCodec ID                    : avc1\nCodec ID/Info               : Advanced Video Coding\nDuration                    : 1h 8mn\nBit rate                    : 1 000 Kbps\nMaximum bit rate            : 6 244 Kbps\nWidth                       : 1 344 pixels\nHeight                      : 1 008 pixels\nDisplay aspect ratio        : 4:3\nFrame rate mode             : Constant\nFrame rate                  : 23.976 fps\nColor space                 : YUV\nChroma subsampling          : 4:2:0\nBit depth                   : 8 bits\nScan type                   : Progressive\nBits/(Pixel*Frame)          : 0.031\nStream size                 : 487 MiB (84%)\nWriting library             : x264 core 146 r2538 121396c\nEncoding settings           : cabac=1 / ref=6 / deblock=1:1:1 / analyse=0x3:0x133 / me=umh / subme=10 / psy=1 / psy_rd=0.40:0.00 / mixed_ref=1 / me_range=24 / chroma_me=1 / trellis=2 / 8x8dct=1 / cqm=0 / deadzone=21,11 / fast_pskip=1 / chroma_qp_offset=-2 / threads=6 / lookahead_threads=1 / sliced_threads=0 / nr=0 / decimate=1 / interlaced=0 / bluray_compat=0 / constrained_intra=0 / bframes=10 / b_pyramid=2 / b_adapt=2 / b_bias=0 / direct=3 / weightb=1 / open_gop=0 / weightp=2 / keyint=240 / keyint_min=23 / scenecut=40 / intra_refresh=0 / rc_lookahead=60 / rc=2pass / mbtree=1 / bitrate=1000 / ratetol=1.0 / qcomp=0.60 / qpmin=0 / qpmax=69 / qpstep=4 / cplxblur=20.0 / qblur=0.5 / vbv_maxrate=62500 / vbv_bufsize=78125 / nal_hrd=none / filler=0 / ip_ratio=1.40 / aq=1:0.60\nEncoded date                : UTC 2015-05-30 08:51:17\nTagged date                 : UTC 2015-05-30 08:52:03\nColor primaries             : BT.709\nTransfer characteristics    : BT.709\nMatrix coefficients         : BT.709\nColor range                 : Limited\n\nAudio\nID                          : 2\nFormat                      : AAC\nFormat/Info                 : Advanced Audio Codec\nFormat profile              : HE-AAC / LC\nCodec ID                    : 40\nDuration                    : 1h 8mn\nBit rate mode               : Variable\nBit rate                    : 187 Kbps\nMaximum bit rate            : 276 Kbps\nChannel(s)                  : 6 channels\nChannel positions           : Front: L C R, Side: L R, LFE\nSampling rate               : 48.0 KHz / 24.0 KHz\nCompression mode            : Lossy\nStream size                 : 90.9 MiB (16%)\nLanguage                    : English\nEncoded date                : UTC 2015-05-30 08:46:15\nTagged date                 : UTC 2015-05-30 08:52:03","torrent":{"xt":"urn:btih:0141a5223ddc6ab47b49cfdc536834316fa984d3","amp;dn":"The+Adventures+of+Ichabod+and+Mr.+Toad+1949+1008p+Brrip.SSloco","amp;tr":["udp%3A%2F%2Ftracker.openbittorrent.com%3A80","udp%3A%2F%2Fopen.demonii.com%3A1337","udp%3A%2F%2Ftracker.coppersurfer.tk%3A6969","udp%3A%2F%2Fexodus.desync.com%3A6969"],"infoHash":"0141a5223ddc6ab47b49cfdc536834316fa984d3","infoHashBuffer":{"type":"Buffer","data":[1,65,165,34,61,220,106,180,123,73,207,220,83,104,52,49,111,169,132,211]},"announce":[],"urlList":[]}}